<?xml version="1.0" encoding="UTF-8" standalone="no"?>
<!-- Created with Inkscape (http://www.inkscape.org/) -->

<svg
   xmlns:dc="http://purl.org/dc/elements/1.1/"
   xmlns:cc="http://creativecommons.org/ns#"
   xmlns:rdf="http://www.w3.org/1999/02/22-rdf-syntax-ns#"
   xmlns:svg="http://www.w3.org/2000/svg"
   xmlns="http://www.w3.org/2000/svg"
   xmlns:sodipodi="http://sodipodi.sourceforge.net/DTD/sodipodi-0.dtd"
   xmlns:inkscape="http://www.inkscape.org/namespaces/inkscape"
   version="1.1"
   id="svg10"
   width="877.44"
   height="1093.12"
   viewBox="0 0 877.44 1093.12"
   sodipodi:docname="TSVLogo1.svg"
   inkscape:version="0.92.3 (2405546, 2018-03-11)">
  <metadata
     id="metadata16">
    <rdf:RDF>
      <cc:Work
         rdf:about="">
        <dc:format>image/svg+xml</dc:format>
        <dc:type
           rdf:resource="http://purl.org/dc/dcmitype/StillImage" />
        <dc:title></dc:title>
      </cc:Work>
    </rdf:RDF>
  </metadata>
  <defs
     id="defs14" />
  <sodipodi:namedview
     pagecolor="#ffffff"
     bordercolor="#666666"
     borderopacity="1"
     objecttolerance="10"
     gridtolerance="10"
     guidetolerance="10"
     inkscape:pageopacity="0"
     inkscape:pageshadow="2"
     inkscape:window-width="1920"
     inkscape:window-height="1057"
     id="namedview12"
     showgrid="false"
     inkscape:zoom="0.64"
     inkscape:cx="438.72"
     inkscape:cy="546.56"
     inkscape:window-x="-8"
     inkscape:window-y="-8"
     inkscape:window-maximized="1"
     inkscape:current-layer="svg10" />
  <path
     style="fill:#ff0000;stroke-width:0.63999999"
     d="m 80.735599,1062.6813 c -23.83084,-3.2343 -40.08536,-18.1985 -45.56983,-41.9524 -0.78757,-3.4111 -1.06591,-7.593 -1.05394,-15.8352 0.0145,-10.00954 0.19331,-11.86272 1.68189,-17.43501 3.24154,-12.13427 8.03201,-20.79552 15.82899,-28.6192 16.32245,-16.37837 42.69377,-21.17741 66.803461,-12.1568 l 3.58943,1.34298 v 14.18451 14.18458 l -1.33946,-2.55053 c -1.9704,-3.75194 -8.59766,-10.21075 -12.74531,-12.42144 -19.056211,-10.15687 -40.060811,0.46656 -44.451051,22.48185 -2.58012,12.93824 -2.8611,29.09566 -0.69333,39.86906 1.46313,7.2714 5.29686,14.831 9.38565,18.5073 6.10712,5.4908 16.66455,7.0867 23.85475,3.606 l 2.94875,-1.4275 v -22.0229 -22.0229 h 14.251041 14.25104 l -0.70395,8.16 c -0.38717,4.488 -1.04014,8.9708 -1.45104,9.9617 -0.97538,2.3522 -0.96822,12.9141 0.01,14.7203 0.41639,0.7689 1.0965,5.142 1.51136,9.718 0.88249,9.734 1.35868,8.8575 -7.09137,13.0528 -11.27027,5.5955 -27.024161,8.2825 -39.017061,6.6548 z m 77.280431,-0.4964 c -7.52248,-2.1154 -13.04457,-6.5897 -16.051,-13.0054 -1.51278,-3.2283 -1.70847,-4.4191 -1.70892,-10.399 -4.9e-4,-6.5192 0.083,-6.9221 2.40965,-11.6298 3.82914,-7.7478 10.76459,-13.1112 23.8901,-18.4752 5.67079,-2.3175 8.96328,-3.3579 17.93668,-5.6676 l 2.63694,-0.6788 -0.54623,-2.9239 c -0.75345,-4.03297 -2.5619,-6.30056 -6.60083,-8.27662 -7.26369,-3.55379 -16.8983,-2.69389 -26.75918,2.38835 -2.9082,1.49888 -5.50364,2.82381 -5.76764,2.94432 -0.264,0.12051 -0.48,-3.81747 -0.48,-8.7511 0,-7.9929 0.12202,-9.00551 1.12,-9.29434 4.35169,-1.25958 12.95229,-1.96633 23.52,-1.93286 13.26505,0.0422 18.0651,0.87392 25.59385,4.43558 4.94986,2.34163 10.68065,7.80058 12.56445,11.96845 1.50436,3.32838 1.5263,3.68397 1.92487,31.20672 0.32115,22.1759 0.60955,28.6863 1.41752,32 0.55789,2.288 1.02446,4.376 1.03683,4.64 0.0123,0.264 -5.73204,0.48 -12.76533,0.48 -14.29698,0 -13.09668,0.4114 -13.5967,-4.6598 l -0.17549,-1.7799 -3.36611,2.5361 c -5.00819,3.7734 -9.59988,5.2994 -16.79389,5.5813 -4.08477,0.16 -7.18248,-0.072 -9.43957,-0.7065 z m 22.42031,-15.331 c 1.33141,-0.475 3.41744,-1.5423 4.63562,-2.3719 l 2.21489,-1.5083 0.004,-14.9024 0.004,-14.9024 -6.24,3.3222 c -12.53736,6.6751 -16.88118,10.7991 -17.7953,16.8949 -1.51766,10.1205 7.2621,17.0048 17.17604,13.4679 z m 155.33926,15.364 c -10.43951,-2.9049 -18.54945,-12.1676 -22.17234,-25.3242 -1.72108,-6.2501 -1.55715,-21.5416 0.30531,-28.48 3.1721,-11.81722 10.58418,-22.7415 18.76457,-27.65613 7.7206,-4.6384 17.65409,-5.27123 23.70441,-1.51014 l 3.28482,2.04192 -0.42695,-16.61562 c -0.23482,-9.13862 -0.60534,-17.50765 -0.82338,-18.59782 l -0.39644,-1.98221 h 13.52 13.52 l 0.0678,52.32 c 0.0373,28.776 0.2533,55.2 0.48,58.72 l 0.41218,6.4 -12.32,-0.1862 -12.32,-0.1862 v -2.844 -2.844 l -3.36,2.5613 c -5.9497,4.5353 -14.91467,6.2216 -22.24,4.1833 z m 18.51555,-15.3812 c 0.99659,-0.5154 2.56629,-1.8335 3.48821,-2.9291 l 1.67624,-1.9921 v -24.1511 -24.15121 l -1.78316,-1.70835 c -4.77491,-4.57466 -12.24366,-2.38247 -15.80116,4.63795 -3.11972,6.15641 -3.80962,10.32371 -3.81948,23.07091 -0.0102,13.1414 0.80433,17.8396 3.98243,22.9724 2.87409,4.6417 8.03774,6.4324 12.25692,4.2506 z m 73.05054,15.3031 c -18.43451,-3.9978 -29.44143,-19.7769 -29.44143,-42.2061 0,-26.35725 15.19119,-43.17779 38.99534,-43.17779 23.42309,0 38.45791,17.04281 38.37284,43.49779 -0.0842,26.1748 -15.28821,42.9998 -38.69284,42.818 -2.816,-0.022 -6.97126,-0.4412 -9.23391,-0.9319 z m 14.08403,-13.2613 c 5.67192,-3.8223 8.20505,-12.7445 8.25012,-29.0585 0.0328,-11.8619 -2.03368,-22.6527 -5.0242,-26.23606 -3.25534,-3.90067 -8.83182,-5.1456 -12.64191,-2.82234 -6.3805,3.89063 -9.08022,14.5749 -8.34155,33.0121 0.52659,13.144 2.37871,20.1576 6.28546,23.8015 3.27548,3.0553 8.06496,3.5993 11.47208,1.3033 z m 232.58988,13.8087 c -15.22906,-2.0198 -27.14786,-13.0544 -31.80649,-29.4469 -1.87307,-6.5909 -2.04986,-21.2893 -0.33325,-27.7066 3.9251,-14.67334 14.84586,-25.6176 28.43612,-28.49741 13.17588,-2.79187 27.20332,0.84903 34.64612,8.99258 4.9738,5.44211 8.1054,12.74363 9.3406,21.77783 l 0.4421,3.2331 -23.45256,9.2469 -23.45248,9.247 0.3296,2.0796 c 0.63238,3.9896 4.32192,10.3375 7.91942,13.6254 7.79514,7.1243 18.25056,6.6651 28.19002,-1.2382 2.1144,-1.6812 3.2063,-2.9751 2.9171,-3.4569 -1.0934,-1.8221 1.9968,1.3369 5.0008,5.1121 3.1892,4.0079 3.2308,4.1158 2.0813,5.3861 -2.1184,2.3407 -9.6322,6.9438 -14.1074,8.6425 -7.54882,2.8652 -18.07561,4.074 -26.151,3.0029 z m 1.80288,-49.84 c 5.69645,-2.3135 10.88288,-4.7192 11.52544,-5.346 2.81088,-2.742 1.84973,-10.3205 -1.8583,-14.65243 -2.65364,-3.10016 -5.25095,-4.22809 -8.67764,-3.76851 -5.34323,0.71674 -9.97689,6.76493 -11.3872,14.86374 -0.72108,4.1407 -0.94156,13.1097 -0.3223,13.1097 0.19962,0 5.02362,-1.8929 10.72,-4.2065 z m -446.63052,46.2865 c 0.68694,-3.2648 1.14265,-68.63245 0.52204,-74.88 l -0.55629,-5.6 h 13.31095 13.31094 l 0.0601,35.36 c 0.0331,19.448 0.24906,38.0241 0.48,41.2801 l 0.41987,5.9202 -13.99264,-2e-4 -13.99264,-10e-5 0.43765,-2.08 z m 42.97107,0.96 c 0.69972,-1.506 1.08647,-99.68589 0.42859,-108.8 l -0.51971,-7.2 h 13.29384 13.29385 l 0.0573,51.04 c 0.0315,28.072 0.24751,54.4243 0.48,58.5606 l 0.42271,7.5207 -13.98847,-7e-4 c -13.0938,-5e-4 -13.95519,-0.072 -13.4681,-1.1206 z m 217.04901,-1.6 c 0.26816,-1.496 0.48756,-17.84 0.48756,-36.32 0,-32.4048 -0.0489,-33.77645 -1.37462,-38.56 l -1.37463,-4.96 h 13.31201 13.31202 l 0.70261,2.01549 c 0.38644,1.10854 0.70261,3.02374 0.70261,4.25606 v 2.24051 l 1.86309,-2.5719 c 1.0247,-1.41459 2.77912,-3.22419 3.8987,-4.02144 2.76254,-1.9671 9.03028,-3.83872 12.85523,-3.83872 h 3.14298 l -6.4e-4,9.44 -6.4e-4,9.44 h -4.95917 c -5.95049,0 -9.62639,1.7043 -12.43823,5.7577 -3.56384,5.1374 -3.92247,8.5018 -3.47931,32.64 0.21972,11.968 0.57349,22.984 0.78615,24.48 l 0.38666,2.72 h -14.15479 -14.15479 l 0.48757,-2.72 z m 59.9825,0.96 c 0.24429,-0.968 0.59858,-16.664 0.7873,-34.88 l 0.34314,-33.12 h -6.4727 -6.47268 v -6.4 -6.4 h 6.71019 6.71019 l -0.38603,-3.69325 c -0.80887,-7.73888 2.62209,-17.05536 8.41387,-22.84717 4.16141,-4.1614 10.93145,-7.6446 17.59178,-9.05094 5.29825,-1.11878 16.94427,-0.91213 21.28,0.3776 l 2.4,0.71392 v 8.64006 8.64007 l -2.4523,-1.97069 c -7.32517,-5.88666 -16.41298,-5.80442 -21.68162,0.19622 -3.44333,3.92173 -3.57382,8.20359 -0.46138,15.13901 l 1.7301,3.85517 h 9.1926 9.1926 v 6.4 6.4 h -9.92 -9.92 l 0.0601,28.96 c 0.0331,15.928 0.24906,31.6241 0.48,34.8801 l 0.41987,5.9202 -13.99461,-2e-4 -13.9946,-10e-5 0.44416,-1.76 z m 180.58496,0.8198 c -3.2572,-1.161 -6.6553,-4.5176 -7.4426,-7.3514 -2.9236,-10.5241 4.3118,-17.5252 17.0549,-16.5023 5.4163,0.4347 9.0851,2.5156 10.9478,6.2095 2.5741,5.1047 1.3275,12.0863 -2.7276,15.276 -3.8651,3.0403 -12.6675,4.2093 -17.8325,2.3682 z m 42.8185,-47.2198 c -14.3468,-43.43136 -18.2807,-54.83021 -22.6398,-65.6 l -1.3599,-3.36 h 15.9112 15.9111 l 2.6279,10.4 c 1.4453,5.72 7.0733,24.368 12.5066,41.44 8.5513,26.8696 9.9648,30.816 10.5205,29.3727 0.353,-0.917 5.1158,-15.317 10.584,-32.00003 8.8669,-27.05197 12.116,-37.49856 14.4603,-46.49267 l 0.709,-2.72 h 9.2486 9.2487 l -2.0057,5.28 c -1.1031,2.904 -9.374,27.19795 -18.3796,53.9865 l -16.374,48.7065 1.1887,3.7735 c 0.6538,2.0755 1.3264,4.1335 1.4948,4.5735 0.2391,0.625 -2.7622,0.8 -13.7187,0.8 h -14.0249 z m 73.0215,47.2198 c -3.2572,-1.161 -6.6553,-4.5176 -7.4426,-7.3514 -2.9236,-10.5241 4.3118,-17.5252 17.0549,-16.5023 5.4163,0.4347 9.0851,2.5156 10.9478,6.2095 2.5741,5.1047 1.3275,12.0863 -2.7276,15.276 -3.8651,3.0403 -12.6675,4.2093 -17.8325,2.3682 z M 235.73323,969.44839 c -3.21131,-1.20045 -4.84251,-2.71744 -6.27396,-5.83469 -1.61292,-3.51245 -1.52405,-7.73344 0.23633,-11.22438 1.94996,-3.86688 5.71115,-5.73485 12.46214,-6.18925 10.54508,-0.7097 16.17786,3.40486 16.17786,11.81747 0,4.68525 -2.16618,8.44218 -5.9493,10.31821 -3.88546,1.92672 -12.86952,2.52697 -16.65307,1.11264 z M 441.37811,937.00327 C 395.38284,912.58964 342.08431,868.56519 295.38537,816.4137 196.538,706.02496 119.93508,551.16678 74.725219,370.3337 46.690659,258.1994 32.079009,139.57833 34.099649,40.525092 c 0.38969,-19.102441 0.5416,-21.295651 1.45552,-21.012875 0.56124,0.173651 10.09094,3.386805 21.17711,7.140342 88.863241,30.08715 189.450671,52.052236 284.163321,62.05221 57.65806,6.087661 118.83597,7.327546 173.76,3.521562 107.99584,-7.48361 222.3608,-30.665841 328.32,-66.55174 9.504,-3.218783 17.7377,-5.992728 18.297,-6.164322 2.2935,-0.703593 2.0561,63.658705 -0.3782,102.503431 -6.0663,96.80385 -22.8661,194.62414 -49.6266,288.96 -33.4903,118.0596 -78.7291,220.48074 -136.81924,309.76 -53.16211,81.70541 -121.16447,153.13568 -187.95296,197.42752 -16.42982,10.89568 -35.80161,22.11187 -38.13528,22.08019 -0.4976,-0.007 -3.63959,-1.46393 -6.98221,-3.23814 z m 15.71594,-50.00506 c 38.89476,-77.06182 69.05797,-188.1383 93.03004,-342.58451 18.02617,-116.13826 25.25924,-192.18392 29.18883,-306.88 1.03957,-30.34251 2.07702,-126.72 1.36408,-126.72 -0.2339,0 -5.3924,0.56243 -11.46333,1.24986 -6.07094,0.68742 -17.37407,1.82826 -25.11807,2.53519 -12.45963,1.13741 -19.53075,1.67288 -39.04,2.95639 -12.07729,0.79457 -39.74728,1.55347 -56.64,1.55347 -16.89272,0 -44.56271,-0.7589 -56.64,-1.55347 -19.49094,-1.2823 -26.58033,-1.81867 -39.04,-2.95365 -13.41558,-1.22206 -27.67629,-2.7107 -33.34076,-3.48036 l -2.62076,-0.3561 -0.41797,14.58434 c -0.45803,15.98169 0.42924,85.27868 1.48147,115.70433 3.10221,89.70218 8.46048,155.70746 18.91156,232.96 24.4587,180.79437 52.87605,300.81178 92.28618,389.76 4.71269,10.63648 16.59688,34.8873 18.57936,37.91296 l 0.99782,1.52288 2.18769,-4.03795 c 1.20323,-2.2208 4.03547,-7.69888 6.29386,-12.17338 z M 434.49492,791.2937 c -7.35245,-8.36 -14.28158,-16.24314 -15.39805,-17.51802 l -2.02995,-2.31808 5.03151,-10.48192 c 17.27499,-35.98835 28.81421,-79.32012 33.72466,-126.64198 1.21515,-11.71027 1.78448,-53.45833 0.87716,-64.32 -2.89485,-34.65487 -7.97318,-59.52628 -24.37132,-119.36 -17.29136,-63.09288 -20.93098,-84.35144 -20.19475,-117.95486 0.38455,-17.5519 1.25205,-26.60442 4.02919,-42.04514 7.49563,-41.6753 26.20818,-87.59231 50.64141,-124.26435 l 5.39963,-8.10435 5.8656,-0.36102 c 3.22607,-0.19856 12.05759,-0.52155 19.62559,-0.71777 14.5711,-0.37778 43.04482,-1.30814 59.43411,-1.94198 l 9.83409,-0.38032 -5.39102,6.2849 c -37.10215,43.25387 -64.70133,92.73318 -75.2827,134.96547 -5.38723,21.50142 -6.82912,39.79285 -5.24927,66.59041 1.75957,29.84584 5.19103,49.16518 14.76521,83.12901 11.42314,40.52289 14.65059,58.7438 16.06801,90.71332 3.2152,72.51805 -13.24665,155.63362 -46.4899,234.72668 -4.44609,10.57824 -16.35977,35.2 -17.03214,35.2 -0.26893,0 -6.50461,-6.84 -13.85707,-15.2 z m -24.24971,92.16006 C 368.8483,794.26157 339.33177,674.49069 313.74535,491.88071 298.37258,382.1655 292.19708,290.54183 291.05936,155.29721 l -0.40376,-47.99649 -3.84,-0.51423 C 272.55829,104.87722 238.605,99.03654 218.9756,95.116596 164.23396,84.184795 116.13883,71.75006 60.415599,54.121758 c -1.04336,-0.330071 -1.11971,0.601195 -1.11572,13.608811 0.026,84.811481 14.77336,195.578761 39.05244,293.323131 42.092441,169.45857 111.382451,314.82598 201.186271,422.08 28.66113,34.2304 64.80948,69.62522 94.47701,92.50746 13.78984,10.63603 18.23961,13.97356 18.68288,14.01305 0.24359,0.0218 -0.86039,-2.76851 -2.45327,-6.20045 z M 331.84637,752.61389 310.95714,742.34951 304.211,728.50164 C 261.73399,641.30839 225.49639,551.42977 203.92796,479.7737 189.08169,430.45045 163.00047,311.40265 147.88296,223.95611 l -2.40258,-13.89758 -3.57239,-1.21039 c -27.07985,-9.17512 -47.843301,-16.3973 -48.291241,-16.79722 -0.30737,-0.2744 -0.9547,-6.20904 -1.43851,-13.18807 -0.4838,-6.97903 -1.30331,-18.73715 -1.82111,-26.12915 -2.61525,-37.33429 -2.98979,-43.32509 -2.72517,-43.58971 0.15774,-0.15772 3.99858,0.89796 8.53522,2.34596 35.638051,11.375 89.405711,24.91265 133.048421,33.49902 13.04668,2.56684 44.18088,8.06473 45.67,8.06473 0.31044,0 0.75673,14.41862 0.99544,32.16 0.23798,17.688 0.4722,34.67542 0.52047,37.74982 0.0483,3.0744 -0.0832,5.76086 -0.2923,5.96991 -0.42633,0.42632 -10.83813,-0.37044 -31.07545,-2.37805 -7.49201,-0.74324 -13.77913,-1.19404 -13.97138,-1.0018 -0.89282,0.89282 8.28438,71.16488 15.43897,118.22012 11.14052,73.2703 20.93854,126.14116 31.37092,169.28 14.36236,59.38959 41.69863,150.64166 69.64373,232.48 3.27536,9.592 5.78969,17.41856 5.5874,17.39232 -0.20229,-0.0262 -9.76795,-4.66669 -21.25703,-10.31213 z M 495.09698,881.54458 C 572.70894,823.02247 643.30976,735.63156 698.9483,629.2137 c 70.6231,-135.07819 119.2241,-306.5366 134.0635,-472.96 2.7694,-31.05866 3.7904,-49.71598 4.3032,-78.635427 l 0.4241,-23.915418 -1.5417,0.48099 c -0.848,0.264544 -4.9978,1.577232 -9.2218,2.917086 -66.3422,21.043748 -154.74381,41.278179 -217.28,49.733689 l -3.52,0.47594 -0.39842,53.75157 c -0.35153,47.42676 -1.05826,81.08958 -2.15637,102.71157 -0.18771,3.696 -0.62807,13.056 -0.97859,20.8 -2.99142,66.09049 -8.46114,127.36772 -16.99545,190.4 -20.90503,154.39935 -43.70476,261.28211 -73.99481,346.88 -7.76315,21.93818 -15.22717,40.37696 -25.71287,63.52 -0.91705,2.024 -1.47236,3.68 -1.23404,3.68 0.23832,0 4.91469,-3.37914 10.39193,-7.50912 z m 53.52215,-135.06579 c 33.16904,-112.46568 56.15847,-245.93462 70.96259,-411.98509 5.31138,-59.57506 10.09584,-137.60566 10.77184,-175.68 l 0.14204,-8 29.12,-4.19866 c 16.016,-2.30926 30.344,-4.40067 31.84,-4.64756 l 2.72,-0.44891 -0.006,19.36757 c -0.0186,73.30087 -6.69773,169.33203 -16.6471,239.3526 -1.90388,13.39882 -7.04864,44.4872 -8.23847,49.78263 -1.05446,4.69317 0.3536,1.96075 5.28077,-10.24767 21.7734,-53.94971 42.7777,-140.7332 55.073,-227.54596 3.9726,-28.03894 8.0582,-67.12652 8.0582,-77.07978 0,-3.44504 0.1447,-3.86379 1.44,-4.16741 0.792,-0.18565 14.976,-3.3729 31.52,-7.0828 16.544,-3.70989 31.1952,-6.99679 32.5582,-7.3042 l 2.4783,-0.55895 -0.4453,5.22955 c -0.6965,8.18018 -4.6445,40.3131 -6.7758,55.14955 -15.654,108.9662 -39.4522,203.15069 -69.8471,276.42828 -50.9744,122.89158 -99.13214,207.31975 -157.91589,276.85172 -7.04299,8.33075 -22.87813,26.01395 -24.50241,27.36198 -0.60047,0.49837 0.26319,-3.2871 2.41313,-10.57689 z m -383.23892,127.2368 c -18.72366,-3.42003 -30.88746,-17.36557 -29.74444,-34.10138 0.66201,-9.69293 6.89097,-18.43629 16.86654,-23.67507 l 4.55966,-2.3945 -5.21808,-5.2855 c -5.66563,-5.73882 -8.12447,-9.70157 -9.64723,-15.54784 -5.24234,-20.12672 11.3225,-38.67539 34.53894,-38.67539 13.23351,0 24.46196,6.096 29.28558,15.89933 1.89962,3.86073 2.07442,4.73043 2.07442,10.32115 0,5.57536 -0.1775,6.46489 -2.04566,10.2512 -2.36491,4.79315 -5.99824,8.57542 -11.27677,11.73894 l -3.72241,2.23091 4.78428,3.22842 c 6.24799,4.21606 12.51739,10.60314 15.02393,15.30592 6.93116,13.00416 4.54508,29.5815 -5.74192,39.89216 -3.91108,3.92006 -11.5356,8.14733 -17.82145,9.88083 -4.16536,1.14867 -17.59892,1.71923 -21.91539,0.93082 z m 17.75539,-13.94464 c 5.26002,-2.72263 8.57208,-7.66963 9.11053,-13.60775 0.59165,-6.52486 -1.99278,-11.62291 -8.03486,-15.84947 -3.57902,-2.50355 -17.79255,-10.38003 -18.73141,-10.38003 -0.26461,0 -2.08137,1.46253 -4.03725,3.25011 -2.34542,2.14355 -4.26956,4.69997 -5.65158,7.50861 -1.88276,3.8263 -2.09231,4.81178 -2.06475,9.70989 0.0259,4.6087 0.29251,5.95667 1.72455,8.72013 3.15004,6.07884 7.06721,9.42982 13.46784,11.52108 3.79528,1.24007 10.98837,0.7986 14.21693,-0.87257 z m 0.95533,-63.12192 c 5.46054,-4.32103 8.07993,-10.05811 7.50683,-16.44167 -0.79045,-8.80473 -7.07751,-14.07897 -15.71936,-13.187 -6.57676,0.67878 -11.63017,6.13126 -11.61655,12.53401 0.008,3.77453 2.30388,8.63949 5.51725,11.69127 2.81259,2.67116 9.7969,7.52422 10.86643,7.55059 0.39047,0.01 1.94089,-0.95661 3.4454,-2.1472 z m 593.12927,77.06656 c -18.7236,-3.42003 -30.8875,-17.36557 -29.7444,-34.10138 0.662,-9.69293 6.891,-18.43629 16.8665,-23.67507 l 4.5596,-2.3945 -5.218,-5.2855 c -5.6657,-5.73882 -8.1245,-9.70157 -9.6472,-15.54784 -5.2424,-20.12672 11.3224,-38.67539 34.5389,-38.67539 13.2335,0 24.4619,6.096 29.2856,15.89933 1.8996,3.86073 2.0744,4.73043 2.0744,10.32115 0,5.57536 -0.1775,6.46489 -2.0456,10.2512 -2.365,4.79315 -5.9983,8.57542 -11.2768,11.73894 l -3.7225,2.23091 4.7844,3.22842 c 6.248,4.21606 12.5173,10.60314 15.0239,15.30592 6.9311,13.00416 4.5451,29.5815 -5.742,39.89216 -3.911,3.92006 -11.5356,8.14733 -17.8214,9.88083 -4.1654,1.14867 -17.5989,1.71923 -21.9154,0.93082 z m 17.7554,-13.94464 c 5.26,-2.72263 8.5721,-7.66963 9.1105,-13.60775 0.5917,-6.52486 -1.9927,-11.62291 -8.0349,-15.84947 -3.579,-2.50355 -17.7925,-10.38003 -18.7313,-10.38003 -0.2646,0 -2.0814,1.46253 -4.0373,3.25011 -2.3454,2.14355 -4.2696,4.69997 -5.6516,7.50861 -1.8827,3.8263 -2.0923,4.81178 -2.0647,9.70989 0.026,4.6087 0.2925,5.95667 1.7245,8.72013 3.1501,6.07884 7.0673,9.42982 13.4678,11.52108 3.7954,1.24007 10.9885,0.7986 14.217,-0.87257 z m 0.9553,-63.12192 c 5.4606,-4.32103 8.08,-10.05811 7.5068,-16.44167 -0.7904,-8.80473 -7.0775,-14.07897 -15.7193,-13.187 -6.5768,0.67878 -11.6302,6.13126 -11.6165,12.53401 0.01,3.77453 2.3038,8.63949 5.5172,11.69127 2.8126,2.67116 9.7969,7.52422 10.8664,7.55059 0.3905,0.01 1.9409,-0.95661 3.4454,-2.1472 z M 63.775599,866.90522 c 0,-5.5929 0.1012,-6.10957 1.12,-5.71834 0.616,0.23661 5.08,0.59968 9.92,0.80685 l 8.8,0.37664 v -44.32774 -44.32768 l -1.76,0.43321 c -2.75348,0.67783 -13.01934,5.98362 -15.70007,8.1145 l -2.42007,1.92358 0.18007,-7.78291 0.18007,-7.78297 16.64,-6.31738 16.64,-6.31738 6.880001,-0.0262 6.88,-0.0262 v 53.12 53.12 l 4.96,-0.0454 c 2.728,-0.025 7.192,-0.24876 9.92,-0.49708 l 4.96,-0.45159 v 5.93709 5.93709 h -33.600001 -33.6 v -6.14848 z m 631.274371,4.17664 c 0.21689,-1.08448 0.58593,-6.84448 0.82003,-12.8 l 0.4257,-10.82816 H 676.03563 655.7756 v -8.88627 -8.88627 l 5.04262,-7.59373 c 10.47271,-15.77101 21.93786,-37.67533 29.26624,-55.91373 l 3.98599,-9.92 12.48245,-0.17338 12.4825,-0.17337 -22.9899,37.78937 c -12.64443,20.78413 -22.9899,37.92615 -22.9899,38.09332 0,0.16723 5.184,0.30406 11.52,0.30406 h 11.52 V 815.60647 799.1193 l 13.76,-18.15136 13.76,-18.15142 v 34.73344 34.73344 l 5.12,-0.39482 5.12,-0.39482 v 8.6425 c 0,8.34624 -0.042,8.61978 -1.238,7.97997 -0.6808,-0.36442 -3.0285,-0.66253 -5.217,-0.66253 h -3.9792 l 0.4382,9.44 c 0.2411,5.192 0.6124,10.952 0.8252,12.8 l 0.3871,3.36 h -15.2082 -15.2081 z"
     id="path22"
     inkscape:connector-curvature="0" />
</svg>
